HIERARCHY
ROOT SimulationBone
{
	OFFSET 0.000000 0.000000 0.000000
	CHANNELS 6 Xposition Yposition Zposition Zrotation Yrotation Xrotation 
	JOINT Hips
	{
		OFFSET 0.000000 0.000000 0.000000
		CHANNELS 6 Xposition Yposition Zposition Zrotation Yrotation Xrotation 
		JOINT LeftUpLeg
		{
			OFFSET 0.103458 1.857831 10.548500
			CHANNELS 3 Zrotation Yrotation Xrotation
			JOINT LeftLeg
			{
				OFFSET 43.500000 -0.000027 -0.000013
				CHANNELS 3 Zrotation Yrotation Xrotation
				JOINT LeftFoot
				{
					OFFSET 42.372196 0.000031 0.000011
					CHANNELS 3 Zrotation Yrotation Xrotation
					JOINT LeftToe
					{
						OFFSET 17.299994 -0.000003 -0.000004
						CHANNELS 3 Zrotation Yrotation Xrotation
						End Site
						{
							OFFSET 0.000000 0.000000 0.000000
						}
					}
				}
			}
		}
		JOINT RightUpLeg
		{
			OFFSET 0.103455 1.857826 -10.548502
			CHANNELS 3 Zrotation Yrotation Xrotation
			JOINT RightLeg
			{
				OFFSET 43.500038 -0.000023 0.000010
				CHANNELS 3 Zrotation Yrotation Xrotation
				JOINT RightFoot
				{
					OFFSET 42.372261 0.000004 0.000006
					CHANNELS 3 Zrotation Yrotation Xrotation
					JOINT RightToe
					{
						OFFSET 17.299988 -0.000008 0.000010
						CHANNELS 3 Zrotation Yrotation Xrotation
						End Site
						{
							OFFSET 0.000000 0.000000 0.000000
						}
					}
				}
			}
		}
		JOINT Spine
		{
			OFFSET 6.901968 -2.603722 -0.000004
			CHANNELS 3 Zrotation Yrotation Xrotation
			JOINT Spine1
			{
				OFFSET 12.588099 -0.000002 0.000005
				CHANNELS 3 Zrotation Yrotation Xrotation
				JOINT Spine2
				{
					OFFSET 12.343202 -0.000017 -0.000005
					CHANNELS 3 Zrotation Yrotation Xrotation
					JOINT Neck
					{
						OFFSET 25.832903 0.000008 0.000008
						CHANNELS 3 Zrotation Yrotation Xrotation
						JOINT Head
						{
							OFFSET 11.766607 0.000004 -0.000001
							CHANNELS 3 Zrotation Yrotation Xrotation
							End Site
							{
								OFFSET 0.000000 0.000000 0.000000
							}
						}
					}
					JOINT LeftShoulder
					{
						OFFSET 19.745907 -1.480366 6.000107
						CHANNELS 3 Zrotation Yrotation Xrotation
						JOINT LeftArm
						{
							OFFSET 11.284126 -0.000031 -0.000025
							CHANNELS 3 Zrotation Yrotation Xrotation
							JOINT LeftForeArm
							{
								OFFSET 33.000050 0.000011 0.000029
								CHANNELS 3 Zrotation Yrotation Xrotation
								JOINT LeftHand
								{
									OFFSET 25.200008 0.000009 0.000011
									CHANNELS 3 Zrotation Yrotation Xrotation
									End Site
									{
										OFFSET 0.000000 0.000000 0.000000
									}
								}
							}
						}
					}
					JOINT RightShoulder
					{
						OFFSET 19.746094 -1.480364 -6.000070
						CHANNELS 3 Zrotation Yrotation Xrotation
						JOINT RightArm
						{
							OFFSET 11.284145 -0.000017 -0.000020
							CHANNELS 3 Zrotation Yrotation Xrotation
							JOINT RightForeArm
							{
								OFFSET 33.000088 0.000019 0.000022
								CHANNELS 3 Zrotation Yrotation Xrotation
								JOINT RightHand
								{
									OFFSET 25.199780 0.000137 0.000414
									CHANNELS 3 Zrotation Yrotation Xrotation
									End Site
									{
										OFFSET 0.000000 0.000000 0.000000
									}
								}
							}
						}
					}
				}
			}
		}
	}
}
MOTION
Frames: 5
Frame Time: 0.033333
194.155559 0.000000 -165.161038 180.000000 -53.742469 180.000000 -11.162253 88.000389 3.578008 83.299501 11.620575 168.956590 149.394269 -13.069902 160.212373 -55.439778 3.078353 -8.238258 95.691954 5.384745 -0.245140 21.454555 0.003095 0.000002 150.668468 -1.523502 168.061804 -59.029924 -1.499696 -0.164786 84.728060 3.613602 16.770987 21.454555 -0.003103 -0.000016 14.074487 0.928113 -0.541092 18.130802 1.929476 -0.929999 17.812553 1.923956 -0.941622 25.314541 6.058913 -24.004280 -10.056616 16.152211 -30.124382 152.163719 -77.984498 26.888395 -9.743479 56.524098 9.231276 -66.714986 -19.633249 2.681414 10.296425 -18.190769 5.778180 140.104611 69.182897 -39.824501 -6.739779 -41.982793 22.513849 -95.065899 1.274267 -2.662691 -4.271379 18.325056 -31.331334 
194.843756 0.000000 -160.655589 180.000000 -53.038758 180.000000 -11.079499 89.836372 3.894766 83.704117 11.184971 170.788090 153.481782 -10.771191 156.669486 -51.260785 3.014518 -6.451687 92.008338 4.450739 1.441049 21.454550 0.003089 -0.000001 147.821618 -3.503798 170.872864 -55.704506 -1.687237 0.356671 80.955937 3.379059 15.050919 21.454560 -0.003109 -0.000020 13.945869 1.192305 -0.931222 17.864795 2.514045 -1.667255 17.546495 2.504065 -1.682401 24.853472 6.417800 -24.649096 -10.242886 15.904930 -30.701417 144.010727 -79.118336 35.075982 -18.176467 52.357239 -1.473100 -68.497180 -18.928486 2.705014 8.816675 -11.844991 15.514628 140.916215 68.820474 -39.024101 -7.271602 -44.562978 19.556570 -91.533988 2.797121 -2.610977 -4.194992 19.954264 -34.910640 
195.451524 0.000000 -156.223353 180.000000 -52.173741 180.000000 -10.706721 91.494820 3.975221 84.216737 10.543391 173.250342 157.911925 -8.037393 153.136775 -46.667899 2.858787 -4.207420 88.025204 3.273955 2.884353 21.454551 0.003101 -0.000001 145.620535 -5.332895 171.723209 -50.304756 -0.462114 -1.679440 74.703958 5.801938 15.399645 21.454551 -0.003099 -0.000018 13.753707 1.527493 -1.441371 17.463930 3.255018 -2.636230 17.145648 3.239177 -2.655825 24.192713 6.238440 -25.248730 -10.304275 15.707734 -31.212520 136.280715 -80.341637 42.793806 -24.965112 48.002843 -10.036831 -70.655746 -18.153781 2.740248 8.083445 -9.454198 20.187558 142.343929 69.381403 -37.521074 -7.409685 -46.559648 11.867277 -86.340271 7.104354 -2.680751 -1.130036 18.315118 -34.293816 
196.014129 0.000000 -151.872689 180.000000 -51.188351 180.000000 -9.912340 92.683998 3.910760 85.057872 9.772624 175.884554 162.746401 -4.569897 153.145559 -42.063146 1.306397 -3.417124 84.179705 3.056171 3.612079 21.454550 0.003093 0.000003 144.307485 -7.270708 171.625278 -44.833027 1.250018 -3.974490 70.651654 8.733526 17.340122 21.454557 -0.003108 -0.000018 13.497465 1.855126 -2.019929 16.926797 3.985841 -3.748251 16.608594 3.963268 -3.772226 23.418180 6.015579 -25.626694 -9.960656 15.175275 -31.303515 126.615001 -81.294257 52.451116 -28.920288 44.455256 -16.217903 -73.527656 -17.111224 2.787967 7.344636 -9.929759 20.456055 143.319499 69.696398 -36.499694 -5.688462 -47.488273 2.357995 -80.728799 10.677759 -2.683594 3.818798 15.159076 -30.965629 
196.532835 0.000000 -147.599801 180.000000 -50.140840 180.000000 -8.881741 93.080528 3.556520 86.051031 8.879546 177.862047 167.593267 -0.598403 152.960324 -37.901136 0.823572 -3.130384 81.348612 3.006428 3.665564 21.454555 0.003087 -0.000002 143.626557 -9.660904 171.727253 -40.115460 2.923612 -3.451868 68.577346 10.082839 21.298258 21.454562 -0.003113 -0.000018 13.155922 2.058152 -2.509334 16.219363 4.447832 -4.707982 15.901380 4.419478 -4.734710 23.304110 5.874929 -25.719489 -10.082221 14.732248 -31.288724 115.162331 -81.518881 63.934758 -30.241393 41.447644 -21.776579 -77.204435 -14.621652 2.769619 8.358694 -9.653538 17.662152 143.930131 69.696118 -35.875302 -2.732445 -47.287039 -8.865001 -74.538660 13.665722 -2.625085 7.945045 11.174756 -27.031604 
